<svg width="75" height="76" viewBox="0 0 75 76" fill="none" xmlns="http://www.w3.org/2000/svg">
<path fill-rule="evenodd" clip-rule="evenodd" d="M17.5574 2.18819C18.1189 2.62923 18.7496 3.2226 19.4753 3.93929C21.0298 5.46931 22.8333 7.92066 24.3809 10.274C25.9458 12.6536 27.3959 15.1587 28.2087 16.9023L28.2092 16.9034L28.2097 16.9046C28.6704 17.8952 29.0856 18.793 29.3775 19.5798C29.6739 20.3789 29.9202 21.2577 29.9218 22.2169C29.9251 24.2245 28.8354 25.774 27.7858 27.2032C27.4842 27.6137 27.228 27.9502 27.0072 28.2401C26.5311 28.8652 26.2191 29.2749 25.9693 29.7488C25.7256 30.2111 25.6545 30.5449 25.7698 31.0821C25.9361 31.8569 26.6592 33.5527 28.0632 35.7712C29.4209 37.9167 31.28 40.3366 33.5011 42.5507C35.7218 44.7644 38.1033 46.5744 40.206 47.8841C42.3727 49.2337 44.0413 49.9265 44.8383 50.0965C45.393 50.2148 45.7394 50.1407 46.2025 49.8996C46.6912 49.6453 47.1259 49.3134 47.8018 48.7974C48.0675 48.5945 48.3704 48.3633 48.7285 48.0971L48.729 48.0967L48.7561 48.0766C50.1901 47.0112 51.7834 45.8274 53.803 45.8295C54.8008 45.8306 55.6964 46.1123 56.485 46.4342C57.2384 46.7418 58.1039 47.1778 59.0534 47.6561L59.1329 47.6961C60.797 48.5353 63.2714 49.9569 65.6667 51.5066C68.0198 53.0289 70.5027 54.806 72.0488 56.3637L72.0511 56.366C72.7697 57.0919 73.3646 57.7226 73.8067 58.284C74.2347 58.8274 74.7045 59.5303 74.9026 60.4046C75.1258 61.3895 74.9235 62.2089 74.716 62.7773C74.6226 63.0335 74.5123 63.2795 74.4331 63.4554C74.4207 63.4829 74.4087 63.5096 74.3969 63.5358C74.3233 63.699 74.2591 63.8415 74.191 64.0045L74.1893 64.0084L74.1877 64.0123C73.488 65.6716 72.6368 67.2628 71.6451 68.7659L71.6421 68.7704L71.6391 68.7749C69.7012 71.6863 67.8781 73.5884 65.0444 74.9084C63.5718 75.5944 61.4677 76.2871 58.1978 75.8793C55.0527 75.4871 50.9609 74.0946 45.3764 70.9669L45.375 70.9662C36.4386 65.9542 30.2378 61.6334 22.2389 53.6568C14.2636 45.7037 10.3435 40.513 4.85204 30.537C-0.676269 20.494 -0.668349 14.3008 0.910405 10.9272C2.23596 8.09464 4.15726 6.27999 7.05893 4.35218L7.06465 4.34839L7.07038 4.34462C8.57505 3.35603 10.1671 2.50731 11.8266 1.80909L11.832 1.80679L11.8375 1.80451C12.0017 1.73627 12.1454 1.67188 12.3096 1.59825C12.3354 1.58671 12.3616 1.57494 12.3886 1.56289C12.565 1.48392 12.8111 1.37413 13.0672 1.28112C13.6348 1.07496 14.4525 0.873574 15.4356 1.09525C16.3097 1.29233 17.0128 1.76051 17.5574 2.18819ZM13.8991 6.74903C12.545 7.31912 11.2458 8.01168 10.0177 8.81808C7.56638 10.4474 6.51554 11.5886 5.76247 13.1978C5.26201 14.2673 4.33579 18.4902 9.54508 27.9537C14.7913 37.4842 18.4046 42.2677 26.0217 49.8635C33.6149 57.4355 39.4037 61.475 47.9942 66.293C53.2511 69.2372 56.6592 70.2889 58.8607 70.5634C60.9375 70.8224 62.0267 70.4043 62.7823 70.0523C64.4041 69.2969 65.5505 68.2533 67.177 65.8105C67.9854 64.5845 68.6794 63.2869 69.2502 61.9338C69.3273 61.7497 69.4027 61.5795 69.4666 61.4374C69.2168 61.141 68.8342 60.7311 68.2456 60.1365C67.1329 59.0158 65.0678 57.4996 62.7568 56.0044C60.4878 54.5365 58.1816 53.2162 56.7218 52.48C55.668 51.9492 54.9931 51.6115 54.4604 51.394C53.9421 51.1824 53.7914 51.1866 53.7973 51.1866C53.8458 51.1866 53.6803 51.092 51.9238 52.3969C51.7444 52.5303 51.5504 52.679 51.3451 52.8364C50.5625 53.4363 49.6149 54.1628 48.676 54.6515C47.273 55.3818 45.6623 55.7498 43.7209 55.3357C42.0219 54.9733 39.7304 53.8991 37.3737 52.4312C34.953 50.9235 32.2478 48.8655 29.7191 46.3448C27.1909 43.8246 25.0874 41.0867 23.5364 38.6359C22.0317 36.2582 20.8998 33.9195 20.5321 32.2065C20.1134 30.2561 20.4951 28.6454 21.2303 27.2507C21.7041 26.3519 22.4124 25.4233 22.9953 24.6589C23.1669 24.4341 23.3275 24.2234 23.4682 24.0319C24.5942 22.4988 24.5678 22.2544 24.5649 22.2277C24.5648 22.2268 24.5647 22.2262 24.5647 22.2257C24.5646 22.1741 24.5527 21.9764 24.3548 21.4429C24.1525 20.8974 23.8375 20.207 23.3524 19.164C22.6901 17.7435 21.3917 15.4783 19.905 13.2174C18.4009 10.9304 16.8497 8.87121 15.7162 7.75603L15.7142 7.75414L15.7123 7.75225C15.1142 7.16144 14.7028 6.77855 14.4058 6.52929C14.2615 6.5938 14.0876 6.67059 13.8991 6.74903Z" fill="white"/>
</svg>
