<svg width="87" height="87" viewBox="0 0 87 87" fill="none" xmlns="http://www.w3.org/2000/svg">
<path d="M43.1 22C31.5 22 22 31.5 22 43.1C22 54.7 31.5 64.2 43.1 64.2C54.7 64.2 64.1 54.7 64.1 43.1C64.1 31.5 54.6 22 43.1 22ZM43.1 59.2C34.2 59.2 27 52 27 43.1C27 34.2 34.2 27 43.1 27C51.9 27 59.1 34.2 59.1 43.1C59.1 52 51.9 59.2 43.1 59.2Z" fill="white"/>
<path d="M66.6001 10.1C64.4001 10.1 62.4001 10.9 60.9001 12.4C59.4001 13.9 58.6001 15.9 58.6001 18.1C58.6001 20.3 59.4001 22.3 60.9001 23.8C62.4001 25.3 64.4001 26.1 66.6001 26.1C68.8001 26.1 70.8001 25.3 72.3001 23.8C73.7001 22.4 74.6001 20.4 74.7001 18.2V18.1C74.7001 16 73.8001 14 72.4001 12.6C70.9001 11 68.8001 10.1 66.6001 10.1ZM68.7001 20.2C67.6001 21.3 65.5001 21.3 64.4001 20.2C63.8001 19.6 63.5001 18.9 63.5001 18.1C63.5001 17.3 63.8001 16.5 64.4001 16C65.0001 15.4 65.7001 15.1 66.5001 15.1C67.3001 15.1 68.1001 15.4 68.7001 16C69.2001 16.5 69.6001 17.3 69.6001 18C69.6001 18.9 69.3001 19.7 68.7001 20.2Z" fill="white"/>
<path d="M60.6 0H25.5C11.4 0 0 11.4 0 25.5V60.7C0 74.8 11.4 86.2 25.5 86.2H60.7C74.8 86.2 86.2 74.8 86.2 60.7V25.5C86.1 11.4 74.7 0 60.6 0ZM81.1 60.7C81.1 72 71.9 81.2 60.6 81.2H25.5C14.2 81.2 5 72 5 60.7V25.5C5 14.2 14.2 5 25.5 5H60.7C72 5 81.2 14.2 81.2 25.5V60.7H81.1Z" fill="white"/>
</svg>
