<svg width="53" height="75" viewBox="0 0 53 75" fill="none" xmlns="http://www.w3.org/2000/svg">
<path fill-rule="evenodd" clip-rule="evenodd" d="M0 26.1431C0 12.034 11.9949 0.80246 26.5 0.80246C41.0051 0.80246 53 12.034 53 26.1431C53 34.0972 48.6994 43.9381 43.9884 52.4441C39.2068 61.0775 33.7 68.8557 30.7469 72.8439C30.2596 73.51 29.6224 74.0522 28.8868 74.4266C28.1474 74.8029 27.3296 74.999 26.5 74.999C25.6704 74.999 24.8526 74.8029 24.1132 74.4266C23.3775 74.0521 22.7403 73.5098 22.253 72.8436C19.2999 68.8539 13.7932 61.0729 9.01153 52.4383C4.30073 43.9318 0 34.0915 0 26.1431ZM26.5 6.10246C14.6707 6.10246 5.3 15.2063 5.3 26.1431C5.3 32.604 8.94927 41.3858 13.648 49.8707C18.2634 58.2049 23.6092 65.7663 26.5 69.673C29.3907 65.7681 34.7366 58.2095 39.352 49.8762C44.0506 41.3928 47.7 32.61 47.7 26.1431C47.7 15.2063 38.3293 6.10246 26.5 6.10246Z" fill="white"/>
<path fill-rule="evenodd" clip-rule="evenodd" d="M26.4999 22.0025C23.5728 22.0025 21.1999 24.3753 21.1999 27.3025C21.1999 30.2296 23.5728 32.6025 26.4999 32.6025C29.427 32.6025 31.7999 30.2296 31.7999 27.3025C31.7999 24.3753 29.427 22.0025 26.4999 22.0025ZM15.8999 27.3025C15.8999 21.4482 20.6457 16.7025 26.4999 16.7025C32.3541 16.7025 37.0999 21.4482 37.0999 27.3025C37.0999 33.1567 32.3541 37.9025 26.4999 37.9025C20.6457 37.9025 15.8999 33.1567 15.8999 27.3025Z" fill="white"/>
</svg>
