<svg width="69" height="55" viewBox="0 0 69 55" fill="none" xmlns="http://www.w3.org/2000/svg">
<path fill-rule="evenodd" clip-rule="evenodd" d="M8.625 4.92857C6.58352 4.92857 4.92857 6.58352 4.92857 8.625V45.5893C4.92857 47.6308 6.58352 49.2857 8.625 49.2857H60.375C62.4165 49.2857 64.0714 47.6308 64.0714 45.5893V8.625C64.0714 6.58352 62.4165 4.92857 60.375 4.92857H8.625ZM0 8.625C0 3.86154 3.86154 0 8.625 0H60.375C65.1385 0 69 3.86154 69 8.625V45.5893C69 50.3527 65.1385 54.2143 60.375 54.2143H8.625C3.86154 54.2143 0 50.3527 0 45.5893V8.625Z" fill="white"/>
<path fill-rule="evenodd" clip-rule="evenodd" d="M10.3761 10.8086C11.2117 9.73432 12.76 9.54079 13.8343 10.3764L34.4999 26.4496L55.1655 10.3764C56.2398 9.54079 57.7881 9.73432 58.6237 10.8086C59.4592 11.8829 59.2657 13.4312 58.1914 14.2667L36.0128 31.5167C35.1229 32.2089 33.8769 32.2089 32.987 31.5167L10.8084 14.2667C9.73411 13.4312 9.54058 11.8829 10.3761 10.8086Z" fill="white"/>
</svg>
